<svg width="40" height="40" viewBox="0 0 40 40" fill="none" xmlns="http://www.w3.org/2000/svg">
<mask id="mask0_754_18" style="mask-type:alpha" maskUnits="userSpaceOnUse" x="0" y="0" width="40" height="40">
<rect width="40" height="40" fill="#D9D9D9"/>
</mask>
<g mask="url(#mask0_754_18)">
<path d="M15.8054 25.8612L30.5971 11.0696C30.8802 10.7918 31.2102 10.6529 31.5871 10.6529C31.9643 10.6529 32.2918 10.7922 32.5696 11.0708C32.8474 11.3497 32.9863 11.6807 32.9863 12.0637C32.9863 12.4471 32.8474 12.7776 32.5696 13.0554L16.7779 28.8612C16.5002 29.139 16.176 29.2779 15.8054 29.2779C15.4352 29.2779 15.1111 29.139 14.8334 28.8612L7.38877 21.4166C7.11099 21.1378 6.97905 20.8064 6.99294 20.4225C7.00682 20.0389 7.15321 19.7082 7.4321 19.4304C7.71071 19.1526 8.04169 19.0137 8.42502 19.0137C8.80835 19.0137 9.13891 19.1526 9.41669 19.4304L15.8054 25.8612Z" fill="white"/>
</g>
</svg>
