<svg width="24" height="24" viewBox="0 0 24 24" fill="none" xmlns="http://www.w3.org/2000/svg">
<path fill-rule="evenodd" clip-rule="evenodd" d="M12 3.48148C7.29535 3.48148 3.48148 7.29535 3.48148 12C3.48148 16.7046 7.29535 20.5185 12 20.5185C16.7046 20.5185 20.5185 16.7046 20.5185 12C20.5185 7.29535 16.7046 3.48148 12 3.48148ZM2 12C2 6.47715 6.47715 2 12 2C17.5228 2 22 6.47715 22 12C22 17.5228 17.5228 22 12 22C6.47715 22 2 17.5228 2 12Z" fill="#262262"/>
<path d="M12 11.3C11.8616 11.3 11.7262 11.3411 11.6111 11.418C11.496 11.4949 11.4063 11.6042 11.3533 11.7321C11.3003 11.86 11.2864 12.0008 11.3134 12.1366C11.3405 12.2724 11.4071 12.3971 11.505 12.495C11.6029 12.5929 11.7277 12.6596 11.8634 12.6866C11.9992 12.7136 12.14 12.6997 12.2679 12.6467C12.3958 12.5937 12.5051 12.504 12.582 12.3889C12.6589 12.2738 12.7 12.1385 12.7 12C12.7 11.8144 12.6262 11.6363 12.495 11.505C12.3637 11.3738 12.1857 11.3 12 11.3ZM12.35 5C15.5 5 15.57 7.499 13.911 8.325C13.6028 8.50776 13.3403 8.75854 13.1438 9.0582C12.9473 9.35785 12.8218 9.69845 12.777 10.054C13.1117 10.1929 13.4073 10.4116 13.638 10.691C16.2 9.291 19 9.84399 19 12.35C19 15.5 16.494 15.57 15.675 13.911C15.4869 13.6029 15.232 13.341 14.9291 13.1448C14.6262 12.9485 14.283 12.8228 13.925 12.777C13.7844 13.1108 13.566 13.406 13.288 13.638C14.688 16.221 14.128 19 11.622 19C8.5 19 8.423 16.494 10.082 15.668C10.3852 15.4828 10.644 15.2332 10.84 14.9368C11.036 14.6404 11.1644 14.3046 11.216 13.953C10.8729 13.8188 10.5711 13.5967 10.341 13.309C7.758 14.695 5 14.149 5 11.65C5 8.5 7.478 8.423 8.304 10.082C8.48945 10.3888 8.74199 10.6496 9.04265 10.8448C9.34332 11.0399 9.68431 11.1645 10.04 11.209C10.1748 10.8721 10.3971 10.5772 10.684 10.355C9.291 7.79999 9.844 5 12.336 5H12.35Z" fill="#262262"/>
</svg>
