<svg width="20" height="20" viewBox="0 0 20 20" fill="none" xmlns="http://www.w3.org/2000/svg">
<path d="M10.8333 15.8332C10.8333 14.6582 11.25 13.5832 11.9167 12.7332C11.8083 12.4748 11.6917 12.2082 11.55 11.9498C11.8833 11.6665 12.1417 11.3248 12.3083 10.9248C12.7167 11.0082 13.15 11.1582 13.5417 11.3915C14.225 11.0415 15 10.8332 15.8333 10.8332C16.7083 10.8332 17.525 11.0582 18.2417 11.4498C18.2917 11.1415 18.3333 10.7998 18.3333 10.4165C18.3333 7.43317 15.025 6.77484 11.9417 8.4415C11.6667 8.10817 11.325 7.84984 10.925 7.68317C11.0833 6.90817 11.45 6.03317 12.275 5.62484C14.2417 4.6415 14.1667 1.6665 10.4167 1.6665C7.44167 1.6665 6.78333 4.9665 8.44167 8.0415C8.1 8.30817 7.83333 8.65817 7.675 9.05817C6.9 8.89984 6.025 8.5415 5.60833 7.7165C4.63333 5.7415 1.66667 5.83317 1.66667 9.58317C1.66667 12.5582 4.95833 13.2082 8.03333 11.5582C8.3 11.8915 8.65833 12.1582 9.06667 12.3248C8.9 13.0915 8.53333 13.9582 7.71667 14.3665C5.75 15.3498 5.83333 18.3332 9.58333 18.3332C10.2583 18.3332 10.8333 18.1498 11.25 17.8415C10.9917 17.2248 10.8333 16.5498 10.8333 15.8332ZM10 10.8332C9.525 10.8332 9.16667 10.4582 9.16667 9.99984C9.16667 9.5415 9.525 9.1665 10 9.1665C10.45 9.1665 10.8333 9.5415 10.8333 9.99984C10.8333 10.4582 10.45 10.8332 10 10.8332ZM14.1667 12.4998V14.1665H15V19.1665H16.6667V12.4998H14.1667Z" fill="#262262"/>
</svg>
