<svg width="24" height="24" viewBox="0 0 24 24" fill="none" xmlns="http://www.w3.org/2000/svg">
<mask id="mask0_367_957" style="mask-type:alpha" maskUnits="userSpaceOnUse" x="0" y="0" width="24" height="24">
<rect width="24" height="24" fill="#D9D9D9"/>
</mask>
<g mask="url(#mask0_367_957)">
<path d="M19.6 15.975C19.2167 15.975 18.8375 15.9292 18.4625 15.8375C18.0875 15.7458 17.725 15.6333 17.375 15.5C17.075 15.3667 16.7708 15.25 16.4625 15.15C16.1542 15.05 15.8333 15 15.5 15C15.1167 15 14.7417 15.0667 14.375 15.2C14.0083 15.3333 13.65 15.4917 13.3 15.675L12.7 14.3C13.1333 14.0667 13.5875 13.875 14.0625 13.725C14.5375 13.575 15.0167 13.5 15.5 13.5C15.8833 13.5 16.2625 13.5458 16.6375 13.6375C17.0125 13.7292 17.375 13.8417 17.725 13.975C18.025 14.1083 18.3292 14.225 18.6375 14.325C18.9458 14.425 19.2667 14.475 19.6 14.475C19.9833 14.475 20.3583 14.4083 20.725 14.275C21.0917 14.1417 21.45 13.9833 21.8 13.8L22.4 15.175C21.9667 15.4083 21.5125 15.6 21.0375 15.75C20.5625 15.9 20.0833 15.975 19.6 15.975ZM19.6 18.975C19.2167 18.975 18.8375 18.9292 18.4625 18.8375C18.0875 18.7458 17.725 18.6333 17.375 18.5C17.075 18.3667 16.7708 18.25 16.4625 18.15C16.1542 18.05 15.8333 18 15.5 18C15.1167 18 14.7417 18.0667 14.375 18.2C14.0083 18.3333 13.65 18.4917 13.3 18.675L12.7 17.3C13.1333 17.0667 13.5875 16.875 14.0625 16.725C14.5375 16.575 15.0167 16.5 15.5 16.5C15.8833 16.5 16.2625 16.5458 16.6375 16.6375C17.0125 16.7292 17.375 16.8417 17.725 16.975C18.025 17.1083 18.3292 17.225 18.6375 17.325C18.9458 17.425 19.2667 17.475 19.6 17.475C19.9833 17.475 20.3583 17.4083 20.725 17.275C21.0917 17.1417 21.45 16.9833 21.8 16.8L22.4 18.175C21.9667 18.4083 21.5125 18.6 21.0375 18.75C20.5625 18.9 20.0833 18.975 19.6 18.975ZM19.6 21.975C19.2167 21.975 18.8375 21.9292 18.4625 21.8375C18.0875 21.7458 17.725 21.6333 17.375 21.5C17.075 21.3667 16.7708 21.25 16.4625 21.15C16.1542 21.05 15.8333 21 15.5 21C15.1167 21 14.7417 21.0667 14.375 21.2C14.0083 21.3333 13.65 21.4917 13.3 21.675L12.7 20.3C13.1333 20.0667 13.5875 19.875 14.0625 19.725C14.5375 19.575 15.0167 19.5 15.5 19.5C15.8833 19.5 16.2625 19.5458 16.6375 19.6375C17.0125 19.7292 17.375 19.8417 17.725 19.975C18.025 20.1083 18.3292 20.225 18.6375 20.325C18.9458 20.425 19.2667 20.475 19.6 20.475C19.9833 20.475 20.3583 20.4083 20.725 20.275C21.0917 20.1417 21.45 19.9833 21.8 19.8L22.4 21.175C21.9667 21.4083 21.5125 21.6 21.0375 21.75C20.5625 21.9 20.0833 21.975 19.6 21.975ZM11 20.45C9.03333 20.2 7.375 19.3333 6.025 17.85C4.675 16.3667 4 14.6167 4 12.6C4 11.5 4.20417 10.4792 4.6125 9.5375C5.02083 8.59583 5.6 7.76667 6.35 7.05L12 1.5L17.65 7.05C18.25 7.63333 18.7458 8.3 19.1375 9.05C19.5292 9.8 19.7917 10.6083 19.925 11.475H13C12.45 11.475 11.9792 11.6708 11.5875 12.0625C11.1958 12.4542 11 12.925 11 13.475V20.45Z" fill="#262262"/>
</g>
</svg>
