<svg width="30" height="30" viewBox="0 0 30 30" fill="none" xmlns="http://www.w3.org/2000/svg">
<mask id="mask0_455_12" style="mask-type:alpha" maskUnits="userSpaceOnUse" x="0" y="0" width="30" height="30">
<rect width="30" height="30" fill="#D9D9D9"/>
</mask>
<g mask="url(#mask0_455_12)">
<path d="M3.75 26.25V7.5C3.75 6.45833 4.11458 5.57292 4.84375 4.84375C5.57292 4.11458 6.45833 3.75 7.5 3.75H12.5C13.5417 3.75 14.4271 4.11458 15.1562 4.84375C15.8854 5.57292 16.25 6.45833 16.25 7.5V26.25H3.75ZM12.5 18.75H13.75V12.5H12.5V18.75ZM6.25 23.75H13.75V21.25H12.5C11.8125 21.25 11.224 21.0052 10.7344 20.5156C10.2448 20.026 10 19.4375 10 18.75V12.5C10 11.8125 10.2448 11.224 10.7344 10.7344C11.224 10.2448 11.8125 10 12.5 10H13.75V7.5C13.75 7.14583 13.6302 6.84896 13.3906 6.60938C13.151 6.36979 12.8542 6.25 12.5 6.25H7.5C7.14583 6.25 6.84896 6.36979 6.60938 6.60938C6.36979 6.84896 6.25 7.14583 6.25 7.5V23.75ZM21.5 16.9688C20.9583 16.9688 20.4271 16.8958 19.9062 16.75C19.3854 16.6042 18.875 16.4167 18.375 16.1875L19.1562 13.8125C19.5729 14 19.9844 14.1562 20.3906 14.2812C20.7969 14.4062 21.1771 14.4688 21.5312 14.4688C21.7812 14.4688 22.0312 14.4271 22.2812 14.3438C22.5312 14.2604 22.7917 14.1354 23.0625 13.9688C23.5625 13.6146 24.0625 13.375 24.5625 13.25C25.0625 13.125 25.5417 13.0625 26 13.0625C26.5208 13.0625 27.0573 13.1302 27.6094 13.2656C28.1615 13.401 28.6771 13.5833 29.1562 13.8125L28.375 16.1875C27.8958 16.0208 27.4531 15.875 27.0469 15.75C26.6406 15.625 26.2917 15.5625 26 15.5625C25.75 15.5625 25.474 15.6094 25.1719 15.7031C24.8698 15.7969 24.5521 15.9583 24.2188 16.1875C23.7812 16.4792 23.3385 16.6823 22.8906 16.7969C22.4427 16.9115 21.9792 16.9688 21.5 16.9688ZM21.5312 12.0938C20.9896 12.0938 20.4479 12.0208 19.9062 11.875C19.3646 11.7292 18.8542 11.5417 18.375 11.3125L19.1562 8.9375C19.6979 9.16667 20.1562 9.33333 20.5312 9.4375C20.9062 9.54167 21.2396 9.59375 21.5312 9.59375C21.7812 9.59375 22.0312 9.55729 22.2812 9.48438C22.5312 9.41146 22.7917 9.28125 23.0625 9.09375C23.5833 8.73958 24.0885 8.5 24.5781 8.375C25.0677 8.25 25.5417 8.1875 26 8.1875C26.5208 8.1875 27.0417 8.25521 27.5625 8.39062C28.0833 8.52604 28.6146 8.70833 29.1562 8.9375L28.375 11.3125C27.8333 11.125 27.375 10.974 27 10.8594C26.625 10.7448 26.2917 10.6875 26 10.6875C25.7292 10.6875 25.4531 10.7292 25.1719 10.8125C24.8906 10.8958 24.5729 11.0625 24.2188 11.3125C23.8438 11.5833 23.4219 11.7812 22.9531 11.9062C22.4844 12.0312 22.0104 12.0938 21.5312 12.0938ZM21.5312 21.8438C20.9896 21.8438 20.4531 21.7708 19.9219 21.625C19.3906 21.4792 18.875 21.2917 18.375 21.0625L19.1562 18.6875C19.6146 18.8958 20.0417 19.0573 20.4375 19.1719C20.8333 19.2865 21.1979 19.3438 21.5312 19.3438C21.7812 19.3438 22.0312 19.3073 22.2812 19.2344C22.5312 19.1615 22.7917 19.0312 23.0625 18.8438C23.5417 18.5104 24.0521 18.276 24.5938 18.1406C25.1354 18.0052 25.6146 17.9375 26.0312 17.9375C26.5521 17.9375 27.0833 18.0104 27.625 18.1563C28.1667 18.3021 28.6771 18.4792 29.1562 18.6875L28.375 21.0625C27.8333 20.875 27.3698 20.724 26.9844 20.6094C26.599 20.4948 26.2708 20.4375 26 20.4375C25.7083 20.4375 25.4115 20.4844 25.1094 20.5781C24.8073 20.6719 24.5104 20.8333 24.2188 21.0625C23.8646 21.3125 23.4531 21.5052 22.9844 21.6406C22.5156 21.776 22.0312 21.8438 21.5312 21.8438Z" fill="#262262"/>
</g>
</svg>
