<svg width="30" height="30" viewBox="0 0 30 30" fill="none" xmlns="http://www.w3.org/2000/svg">
<mask id="mask0_455_18" style="mask-type:alpha" maskUnits="userSpaceOnUse" x="0" y="0" width="30" height="30">
<rect width="30" height="30" fill="#D9D9D9"/>
</mask>
<g mask="url(#mask0_455_18)">
<path d="M11.25 3.75V1.25H18.75V3.75H11.25ZM13.75 17.5H16.25V10H13.75V17.5ZM15 27.5C13.4583 27.5 12.0052 27.2031 10.6406 26.6094C9.27604 26.0156 8.08333 25.2083 7.0625 24.1875C6.04167 23.1667 5.23438 21.974 4.64063 20.6094C4.04688 19.2448 3.75 17.7917 3.75 16.25C3.75 14.7083 4.04688 13.2552 4.64063 11.8906C5.23438 10.526 6.04167 9.33333 7.0625 8.3125C8.08333 7.29167 9.27604 6.48438 10.6406 5.89062C12.0052 5.29688 13.4583 5 15 5C16.2917 5 17.5313 5.20833 18.7188 5.625C19.9062 6.04167 21.0208 6.64583 22.0625 7.4375L23.8125 5.6875L25.5625 7.4375L23.8125 9.1875C24.6042 10.2292 25.2083 11.3438 25.625 12.5313C26.0417 13.7188 26.25 14.9583 26.25 16.25C26.25 17.7917 25.9531 19.2448 25.3594 20.6094C24.7656 21.974 23.9583 23.1667 22.9375 24.1875C21.9167 25.2083 20.724 26.0156 19.3594 26.6094C17.9948 27.2031 16.5417 27.5 15 27.5ZM15 25C17.4167 25 19.4792 24.1458 21.1875 22.4375C22.8958 20.7292 23.75 18.6667 23.75 16.25C23.75 13.8333 22.8958 11.7708 21.1875 10.0625C19.4792 8.35417 17.4167 7.5 15 7.5C12.5833 7.5 10.5208 8.35417 8.8125 10.0625C7.10417 11.7708 6.25 13.8333 6.25 16.25C6.25 18.6667 7.10417 20.7292 8.8125 22.4375C10.5208 24.1458 12.5833 25 15 25Z" fill="#262262"/>
</g>
</svg>
